<svg width="641" height="494" viewBox="0 0 641 494" fill="none" xmlns="http://www.w3.org/2000/svg">
<path d="M169.94 264.936C147.372 264.936 129 246.573 129 223.996C129 201.419 147.372 183.056 169.94 183.056C192.508 183.056 210.88 201.419 210.88 223.996C210.88 246.573 192.508 264.936 169.94 264.936ZM169.94 186.802C149.429 186.802 132.746 203.494 132.746 224.005C132.746 244.516 149.429 261.208 169.94 261.208C190.451 261.208 207.134 244.516 207.134 224.005C207.134 203.494 190.451 186.802 169.94 186.802Z" fill="black"/>
<path d="M511.272 26.6052C503.954 26.6052 498 20.6511 498 13.3304C498 6.00981 503.954 0.0556641 511.272 0.0556641C518.589 0.0556641 524.547 6.00981 524.547 13.3304C524.547 20.6511 518.592 26.6052 511.272 26.6052ZM511.272 1.27031C504.621 1.27031 499.212 6.68263 499.212 13.3334C499.212 19.9842 504.621 25.3965 511.272 25.3965C517.923 25.3965 523.335 19.9842 523.335 13.3334C523.335 6.68263 517.923 1.27031 511.272 1.27031Z" fill="black"/>
<path d="M11.5596 442.805C11.5596 442.998 11.4852 443.192 11.3363 443.337C11.0416 443.629 10.5682 443.626 10.2765 443.332L0.216967 433.159C-0.0747862 432.867 -0.0718101 432.394 0.22292 432.099C0.51765 431.807 0.991006 431.81 1.28276 432.105L11.3423 442.278C11.4852 442.424 11.5596 442.614 11.5596 442.805Z" fill="black"/>
<path d="M61.2822 493.041C61.2822 493.234 61.2077 493.428 61.0589 493.574C60.7641 493.866 60.2908 493.863 59.999 493.568L19.5763 452.708C19.2846 452.413 19.2876 451.939 19.5823 451.648C19.877 451.356 20.3504 451.359 20.6421 451.654L61.0648 492.514C61.2107 492.66 61.2822 492.85 61.2822 493.041Z" fill="black"/>
<path d="M50.1474 465.666C50.1474 465.859 50.073 466.053 49.9241 466.199C49.6294 466.491 49.156 466.488 48.8643 466.193L8.4416 425.333C8.14687 425.038 8.1558 424.564 8.44755 424.273C8.74228 423.981 9.21564 423.984 9.50739 424.279L49.9301 465.139C50.076 465.285 50.1474 465.475 50.1474 465.666Z" fill="black"/>
<path d="M63.1354 77.1237C62.8781 77.1237 62.6207 77.0334 62.413 76.8664C62.1015 76.609 61.9481 76.2027 62.0158 75.8009L70.4806 25.0029C70.5438 24.6011 70.8237 24.2671 71.2029 24.1271C71.5821 23.9872 72.0066 24.0549 72.3271 24.3122L112.087 57.0429C112.398 57.3002 112.552 57.7065 112.484 58.1083C112.421 58.5101 112.141 58.8442 111.762 58.9841L63.5371 77.0515C63.4062 77.1011 63.2708 77.1237 63.1354 77.1237ZM72.3948 27.3189L64.5755 74.2344L109.116 57.5485L72.3948 27.3189Z" fill="black"/>
<path d="M591.874 242.906C591.648 242.906 591.423 242.819 591.253 242.646C590.913 242.303 590.916 241.751 591.26 241.411L638.872 194.308C639.216 193.969 639.767 193.972 640.107 194.315C640.447 194.659 640.444 195.21 640.1 195.55L592.488 242.653C592.318 242.823 592.096 242.906 591.874 242.906Z" fill="black"/>
</svg>
