<svg width="21" height="20" viewBox="0 0 21 20" fill="none" xmlns="http://www.w3.org/2000/svg">
<path d="M10.5 0.851562C8.76302 0.851562 7.16081 1.28581 5.69336 2.1543C4.22591 2.99284 3.05794 4.14583 2.18945 5.61328C1.35091 7.08073 0.931641 8.68294 0.931641 10.4199C0.931641 12.0072 1.27604 13.4896 1.96484 14.8672C2.68359 16.2148 3.6569 17.3379 4.88477 18.2363C6.11263 19.1348 7.49023 19.6888 9.01758 19.8984V13.2051H6.5918V10.4199H9.01758V8.30859C9.01758 7.14062 9.33203 6.22721 9.96094 5.56836C10.6198 4.90951 11.5033 4.58008 12.6113 4.58008C13.3301 4.58008 14.0488 4.63997 14.7676 4.75977V7.14062H13.5547C13.0156 7.14062 12.6113 7.29036 12.3418 7.58984C12.1022 7.85938 11.9824 8.20378 11.9824 8.62305V10.4199H14.6777L14.2285 13.2051H11.9824V19.8984C13.5397 19.6589 14.9323 19.0898 16.1602 18.1914C17.388 17.293 18.3464 16.1699 19.0352 14.8223C19.724 13.4447 20.0684 11.9772 20.0684 10.4199C20.0684 8.68294 19.6341 7.08073 18.7656 5.61328C17.9271 4.14583 16.7741 2.99284 15.3066 2.1543C13.8392 1.28581 12.237 0.851562 10.5 0.851562Z" fill="black"/>
</svg>
