<svg width="19" height="18" viewBox="0 0 19 18" fill="none" xmlns="http://www.w3.org/2000/svg">
<path d="M16.1934 0.75C16.7324 0.75 17.1816 0.944661 17.541 1.33398C17.9303 1.69336 18.125 2.14258 18.125 2.68164V16.0684C18.125 16.6074 17.9303 17.0716 17.541 17.4609C17.1816 17.8203 16.7324 18 16.1934 18H2.80664C2.26758 18 1.80339 17.8203 1.41406 17.4609C1.05469 17.0716 0.875 16.6074 0.875 16.0684V2.68164C0.875 2.14258 1.05469 1.69336 1.41406 1.33398C1.80339 0.944661 2.26758 0.75 2.80664 0.75H16.1934ZM15.7441 15.6191V10.543C15.7441 9.67448 15.4297 8.94076 14.8008 8.3418C14.2018 7.71289 13.4681 7.39844 12.5996 7.39844C12.1803 7.39844 11.7611 7.51823 11.3418 7.75781C10.9225 7.9974 10.6081 8.29688 10.3984 8.65625V7.57812H7.70312V15.6191H10.3984V10.8574C10.3984 10.498 10.5182 10.1986 10.7578 9.95898C11.0273 9.68945 11.3418 9.55469 11.7012 9.55469C12.0905 9.55469 12.4049 9.68945 12.6445 9.95898C12.9141 10.1986 13.0488 10.498 13.0488 10.8574V15.6191H15.7441ZM4.60352 6.0957C5.05273 6.0957 5.42708 5.94596 5.72656 5.64648C6.05599 5.31706 6.2207 4.92773 6.2207 4.47852C6.2207 4.0293 6.05599 3.65495 5.72656 3.35547C5.42708 3.02604 5.05273 2.86133 4.60352 2.86133C4.1543 2.86133 3.76497 3.02604 3.43555 3.35547C3.13607 3.65495 2.98633 4.0293 2.98633 4.47852C2.98633 4.92773 3.13607 5.31706 3.43555 5.64648C3.76497 5.94596 4.1543 6.0957 4.60352 6.0957ZM5.90625 15.6191V7.57812H3.25586V15.6191H5.90625Z" fill="black"/>
</svg>
