<svg width="140" height="19" viewBox="0 0 140 19" fill="none" xmlns="http://www.w3.org/2000/svg">
<path d="M10.0195 15.25L16.207 19L14.5664 11.9688L20.0039 7.23438L12.832 6.625L10.0195 0.015625L7.20703 6.625L0.0351562 7.23438L5.47266 11.9688L3.83203 19L10.0195 15.25ZM34.0195 15.25L40.207 19L38.5664 11.9688L44.0039 7.23438L36.832 6.625L34.0195 0.015625L31.207 6.625L24.0352 7.23438L29.4727 11.9688L27.832 19L34.0195 15.25ZM58.0195 15.25L64.207 19L62.5664 11.9688L68.0039 7.23438L60.832 6.625L58.0195 0.015625L55.207 6.625L48.0352 7.23438L53.4727 11.9688L51.832 19L58.0195 15.25ZM82.0195 15.25L88.207 19L86.5664 11.9688L92.0039 7.23438L84.832 6.625L82.0195 0.015625L79.207 6.625L72.0352 7.23438L77.4727 11.9688L75.832 19L82.0195 15.25ZM106.02 15.25L112.207 19L110.566 11.9688L116.004 7.23438L108.832 6.625L106.02 0.015625L103.207 6.625L96.0352 7.23438L101.473 11.9688L99.832 19L106.02 15.25ZM130.02 15.25L136.207 19L134.566 11.9688L140.004 7.23438L132.832 6.625L130.02 0.015625L127.207 6.625L120.035 7.23438L125.473 11.9688L123.832 19L130.02 15.25Z" fill="#F8CE46"/>
</svg>
