<svg width="21" height="17" viewBox="0 0 21 17" fill="none" xmlns="http://www.w3.org/2000/svg">
<path d="M20.5176 2.625C19.7988 2.95443 19.0202 3.17904 18.1816 3.29883C19.0501 2.75977 19.6491 1.99609 19.9785 1.00781C19.1699 1.48698 18.3014 1.81641 17.373 1.99609C16.5645 1.1276 15.5462 0.693359 14.3184 0.693359C13.2103 0.693359 12.252 1.09766 11.4434 1.90625C10.6348 2.71484 10.2305 3.68815 10.2305 4.82617C10.2305 5.12565 10.2754 5.4401 10.3652 5.76953C8.68815 5.67969 7.10091 5.26042 5.60352 4.51172C4.13607 3.73307 2.89323 2.71484 1.875 1.45703C1.51562 2.08594 1.33594 2.77474 1.33594 3.52344C1.33594 4.24219 1.50065 4.90104 1.83008 5.5C2.15951 6.09896 2.59375 6.57812 3.13281 6.9375C2.50391 6.9375 1.88997 6.77279 1.29102 6.44336V6.48828C1.29102 7.47656 1.60547 8.34505 2.23438 9.09375C2.86328 9.84245 3.64193 10.3216 4.57031 10.5312C4.24089 10.6211 3.88151 10.666 3.49219 10.666C3.2526 10.666 2.99805 10.6361 2.72852 10.5762C2.99805 11.4147 3.47721 12.1035 4.16602 12.6426C4.88477 13.1517 5.67839 13.4212 6.54688 13.4512C5.07943 14.6191 3.38737 15.2031 1.4707 15.2031C1.14128 15.2031 0.811849 15.1882 0.482422 15.1582C2.39909 16.3861 4.49544 17 6.77148 17C9.16732 17 11.2936 16.3861 13.1504 15.1582C14.8574 14.0801 16.1901 12.6126 17.1484 10.7559C18.0469 8.98893 18.4961 7.17708 18.4961 5.32031L18.4512 4.78125C19.2598 4.21224 19.9486 3.49349 20.5176 2.625Z" fill="black"/>
</svg>
